# xmcd
#
# Track frame offsets:
# 150
# 15850
# 30560
# 49495
# 61510
# 77150
# 91290
# 114315
# 130510
# 133685
# 144050
# 158160
#
# Disc length: 2412 seconds
#
# Revision: 0
# Processed by: cddbd v1.5PL3 Copyright (c) Steve Scherf et al.
# Submitted via: Audion 3.0.2 (http://www.panic.com/audion/)
#
DISCID=86096a0c
DTITLE=Adelphi - Dont Pass Go
DYEAR=1900
DGENRE=
TTITLE0=Sit and Stare
TTITLE1=Starting Point
TTITLE2=You've Said Enough
TTITLE3=Better This Way
TTITLE4=Too Far From Home
TTITLE5=Spring  Break My Heart
TTITLE6=Falling In Autumn
TTITLE7=Wake Up
TTITLE8=Tommy Tsunami
TTITLE9=Acoustified
TTITLE10=All Too Soon
TTITLE11=Jack Eats Much Cake
EXTD=
EXTT0=
EXTT1=
EXTT2=
EXTT3=
EXTT4=
EXTT5=
EXTT6=
EXTT7=
EXTT8=
EXTT9=
EXTT10=
EXTT11=
PLAYORDER=
